<svg width="14" height="15" viewBox="0 0 14 15" fill="none" xmlns="http://www.w3.org/2000/svg">
<path d="M6.39448 1.50904C6.62069 0.812838 7.60562 0.812838 7.83183 1.50904L8.92283 4.86676C9.02399 5.17811 9.31413 5.38891 9.6415 5.38891H13.172C13.9041 5.38891 14.2084 6.32564 13.6162 6.75591L10.7599 8.8311C10.4951 9.02353 10.3843 9.36461 10.4854 9.67596L11.5764 13.0337C11.8026 13.7299 11.0058 14.3088 10.4136 13.8785L7.55732 11.8034C7.29247 11.6109 6.93384 11.6109 6.66899 11.8034L3.81274 13.8785C3.22052 14.3088 2.42369 13.7299 2.6499 13.0337L3.74089 9.67596C3.84205 9.36461 3.73123 9.02353 3.46638 8.8311L0.610124 6.75591C0.0179025 6.32564 0.322264 5.38891 1.05429 5.38891H4.58481C4.91219 5.38891 5.20233 5.17811 5.30349 4.86676L6.39448 1.50904Z" fill="#FFA800"/>
</svg>
